<mxfile host="app.diagrams.net" agent="Mozilla/5.0 (Windows NT 10.0; Win64; x64) AppleWebKit/537.36 (KHTML, like Gecko) Chrome/128.0.0.0 Safari/537.36" version="24.7.7">
  <diagram name="第 1 页" id="ENwdG04MEgDOj9etcdXg">
    <mxGraphModel dx="2074" dy="1098" grid="1" gridSize="10" guides="1" tooltips="1" connect="1" arrows="1" fold="1" page="1" pageScale="1" pageWidth="827" pageHeight="1169" math="0" shadow="0">
      <root>
        <mxCell id="0" />
        <mxCell id="1" parent="0" />
        <mxCell id="OJI9j9PqVcEZtPeE3aiB-1" value="User" style="shape=table;startSize=25;container=1;collapsible=0;childLayout=tableLayout;fixedRows=1;rowLines=1;fontStyle=1;align=center;resizeLast=1;" vertex="1" parent="1">
          <mxGeometry x="20" y="232" width="137" height="179" as="geometry" />
        </mxCell>
        <mxCell id="OJI9j9PqVcEZtPeE3aiB-2" style="shape=tableRow;horizontal=0;startSize=0;swimlaneHead=0;swimlaneBody=0;fillColor=none;collapsible=0;dropTarget=0;points=[[0,0.5],[1,0.5]];portConstraint=eastwest;top=0;left=0;right=0;bottom=0;" vertex="1" parent="OJI9j9PqVcEZtPeE3aiB-1">
          <mxGeometry y="25" width="137" height="22" as="geometry" />
        </mxCell>
        <mxCell id="OJI9j9PqVcEZtPeE3aiB-3" value="int" style="shape=partialRectangle;connectable=0;fillColor=none;top=0;left=0;bottom=0;right=0;align=left;spacingLeft=2;overflow=hidden;fontSize=11;" vertex="1" parent="OJI9j9PqVcEZtPeE3aiB-2">
          <mxGeometry width="42" height="22" as="geometry">
            <mxRectangle width="42" height="22" as="alternateBounds" />
          </mxGeometry>
        </mxCell>
        <mxCell id="OJI9j9PqVcEZtPeE3aiB-4" value="id" style="shape=partialRectangle;connectable=0;fillColor=none;top=0;left=0;bottom=0;right=0;align=left;spacingLeft=2;overflow=hidden;fontSize=11;" vertex="1" parent="OJI9j9PqVcEZtPeE3aiB-2">
          <mxGeometry x="42" width="95" height="22" as="geometry">
            <mxRectangle width="95" height="22" as="alternateBounds" />
          </mxGeometry>
        </mxCell>
        <mxCell id="OJI9j9PqVcEZtPeE3aiB-5" style="shape=tableRow;horizontal=0;startSize=0;swimlaneHead=0;swimlaneBody=0;fillColor=none;collapsible=0;dropTarget=0;points=[[0,0.5],[1,0.5]];portConstraint=eastwest;top=0;left=0;right=0;bottom=0;" vertex="1" parent="OJI9j9PqVcEZtPeE3aiB-1">
          <mxGeometry y="47" width="137" height="22" as="geometry" />
        </mxCell>
        <mxCell id="OJI9j9PqVcEZtPeE3aiB-6" value="string" style="shape=partialRectangle;connectable=0;fillColor=none;top=0;left=0;bottom=0;right=0;align=left;spacingLeft=2;overflow=hidden;fontSize=11;" vertex="1" parent="OJI9j9PqVcEZtPeE3aiB-5">
          <mxGeometry width="42" height="22" as="geometry">
            <mxRectangle width="42" height="22" as="alternateBounds" />
          </mxGeometry>
        </mxCell>
        <mxCell id="OJI9j9PqVcEZtPeE3aiB-7" value="uuid" style="shape=partialRectangle;connectable=0;fillColor=none;top=0;left=0;bottom=0;right=0;align=left;spacingLeft=2;overflow=hidden;fontSize=11;" vertex="1" parent="OJI9j9PqVcEZtPeE3aiB-5">
          <mxGeometry x="42" width="95" height="22" as="geometry">
            <mxRectangle width="95" height="22" as="alternateBounds" />
          </mxGeometry>
        </mxCell>
        <mxCell id="OJI9j9PqVcEZtPeE3aiB-8" style="shape=tableRow;horizontal=0;startSize=0;swimlaneHead=0;swimlaneBody=0;fillColor=none;collapsible=0;dropTarget=0;points=[[0,0.5],[1,0.5]];portConstraint=eastwest;top=0;left=0;right=0;bottom=0;" vertex="1" parent="OJI9j9PqVcEZtPeE3aiB-1">
          <mxGeometry y="69" width="137" height="22" as="geometry" />
        </mxCell>
        <mxCell id="OJI9j9PqVcEZtPeE3aiB-9" value="string" style="shape=partialRectangle;connectable=0;fillColor=none;top=0;left=0;bottom=0;right=0;align=left;spacingLeft=2;overflow=hidden;fontSize=11;" vertex="1" parent="OJI9j9PqVcEZtPeE3aiB-8">
          <mxGeometry width="42" height="22" as="geometry">
            <mxRectangle width="42" height="22" as="alternateBounds" />
          </mxGeometry>
        </mxCell>
        <mxCell id="OJI9j9PqVcEZtPeE3aiB-10" value="username" style="shape=partialRectangle;connectable=0;fillColor=none;top=0;left=0;bottom=0;right=0;align=left;spacingLeft=2;overflow=hidden;fontSize=11;" vertex="1" parent="OJI9j9PqVcEZtPeE3aiB-8">
          <mxGeometry x="42" width="95" height="22" as="geometry">
            <mxRectangle width="95" height="22" as="alternateBounds" />
          </mxGeometry>
        </mxCell>
        <mxCell id="OJI9j9PqVcEZtPeE3aiB-11" style="shape=tableRow;horizontal=0;startSize=0;swimlaneHead=0;swimlaneBody=0;fillColor=none;collapsible=0;dropTarget=0;points=[[0,0.5],[1,0.5]];portConstraint=eastwest;top=0;left=0;right=0;bottom=0;" vertex="1" parent="OJI9j9PqVcEZtPeE3aiB-1">
          <mxGeometry y="91" width="137" height="22" as="geometry" />
        </mxCell>
        <mxCell id="OJI9j9PqVcEZtPeE3aiB-12" value="string" style="shape=partialRectangle;connectable=0;fillColor=none;top=0;left=0;bottom=0;right=0;align=left;spacingLeft=2;overflow=hidden;fontSize=11;" vertex="1" parent="OJI9j9PqVcEZtPeE3aiB-11">
          <mxGeometry width="42" height="22" as="geometry">
            <mxRectangle width="42" height="22" as="alternateBounds" />
          </mxGeometry>
        </mxCell>
        <mxCell id="OJI9j9PqVcEZtPeE3aiB-13" value="password" style="shape=partialRectangle;connectable=0;fillColor=none;top=0;left=0;bottom=0;right=0;align=left;spacingLeft=2;overflow=hidden;fontSize=11;" vertex="1" parent="OJI9j9PqVcEZtPeE3aiB-11">
          <mxGeometry x="42" width="95" height="22" as="geometry">
            <mxRectangle width="95" height="22" as="alternateBounds" />
          </mxGeometry>
        </mxCell>
        <mxCell id="OJI9j9PqVcEZtPeE3aiB-14" style="shape=tableRow;horizontal=0;startSize=0;swimlaneHead=0;swimlaneBody=0;fillColor=none;collapsible=0;dropTarget=0;points=[[0,0.5],[1,0.5]];portConstraint=eastwest;top=0;left=0;right=0;bottom=0;" vertex="1" parent="OJI9j9PqVcEZtPeE3aiB-1">
          <mxGeometry y="113" width="137" height="22" as="geometry" />
        </mxCell>
        <mxCell id="OJI9j9PqVcEZtPeE3aiB-15" value="string" style="shape=partialRectangle;connectable=0;fillColor=none;top=0;left=0;bottom=0;right=0;align=left;spacingLeft=2;overflow=hidden;fontSize=11;" vertex="1" parent="OJI9j9PqVcEZtPeE3aiB-14">
          <mxGeometry width="42" height="22" as="geometry">
            <mxRectangle width="42" height="22" as="alternateBounds" />
          </mxGeometry>
        </mxCell>
        <mxCell id="OJI9j9PqVcEZtPeE3aiB-16" value="salt" style="shape=partialRectangle;connectable=0;fillColor=none;top=0;left=0;bottom=0;right=0;align=left;spacingLeft=2;overflow=hidden;fontSize=11;" vertex="1" parent="OJI9j9PqVcEZtPeE3aiB-14">
          <mxGeometry x="42" width="95" height="22" as="geometry">
            <mxRectangle width="95" height="22" as="alternateBounds" />
          </mxGeometry>
        </mxCell>
        <mxCell id="OJI9j9PqVcEZtPeE3aiB-17" style="shape=tableRow;horizontal=0;startSize=0;swimlaneHead=0;swimlaneBody=0;fillColor=none;collapsible=0;dropTarget=0;points=[[0,0.5],[1,0.5]];portConstraint=eastwest;top=0;left=0;right=0;bottom=0;" vertex="1" parent="OJI9j9PqVcEZtPeE3aiB-1">
          <mxGeometry y="135" width="137" height="22" as="geometry" />
        </mxCell>
        <mxCell id="OJI9j9PqVcEZtPeE3aiB-18" value="boolean" style="shape=partialRectangle;connectable=0;fillColor=none;top=0;left=0;bottom=0;right=0;align=left;spacingLeft=2;overflow=hidden;fontSize=11;" vertex="1" parent="OJI9j9PqVcEZtPeE3aiB-17">
          <mxGeometry width="42" height="22" as="geometry">
            <mxRectangle width="42" height="22" as="alternateBounds" />
          </mxGeometry>
        </mxCell>
        <mxCell id="OJI9j9PqVcEZtPeE3aiB-19" value="is_superuser" style="shape=partialRectangle;connectable=0;fillColor=none;top=0;left=0;bottom=0;right=0;align=left;spacingLeft=2;overflow=hidden;fontSize=11;" vertex="1" parent="OJI9j9PqVcEZtPeE3aiB-17">
          <mxGeometry x="42" width="95" height="22" as="geometry">
            <mxRectangle width="95" height="22" as="alternateBounds" />
          </mxGeometry>
        </mxCell>
        <mxCell id="OJI9j9PqVcEZtPeE3aiB-20" style="shape=tableRow;horizontal=0;startSize=0;swimlaneHead=0;swimlaneBody=0;fillColor=none;collapsible=0;dropTarget=0;points=[[0,0.5],[1,0.5]];portConstraint=eastwest;top=0;left=0;right=0;bottom=0;" vertex="1" parent="OJI9j9PqVcEZtPeE3aiB-1">
          <mxGeometry y="157" width="137" height="22" as="geometry" />
        </mxCell>
        <mxCell id="OJI9j9PqVcEZtPeE3aiB-21" value="int" style="shape=partialRectangle;connectable=0;fillColor=none;top=0;left=0;bottom=0;right=0;align=left;spacingLeft=2;overflow=hidden;fontSize=11;" vertex="1" parent="OJI9j9PqVcEZtPeE3aiB-20">
          <mxGeometry width="42" height="22" as="geometry">
            <mxRectangle width="42" height="22" as="alternateBounds" />
          </mxGeometry>
        </mxCell>
        <mxCell id="OJI9j9PqVcEZtPeE3aiB-22" value="status" style="shape=partialRectangle;connectable=0;fillColor=none;top=0;left=0;bottom=0;right=0;align=left;spacingLeft=2;overflow=hidden;fontSize=11;" vertex="1" parent="OJI9j9PqVcEZtPeE3aiB-20">
          <mxGeometry x="42" width="95" height="22" as="geometry">
            <mxRectangle width="95" height="22" as="alternateBounds" />
          </mxGeometry>
        </mxCell>
        <mxCell id="OJI9j9PqVcEZtPeE3aiB-23" value="ManagerUser" style="shape=table;startSize=25;container=1;collapsible=0;childLayout=tableLayout;fixedRows=1;rowLines=1;fontStyle=1;align=center;resizeLast=1;" vertex="1" parent="1">
          <mxGeometry x="47" y="532" width="182" height="179" as="geometry" />
        </mxCell>
        <mxCell id="OJI9j9PqVcEZtPeE3aiB-24" style="shape=tableRow;horizontal=0;startSize=0;swimlaneHead=0;swimlaneBody=0;fillColor=none;collapsible=0;dropTarget=0;points=[[0,0.5],[1,0.5]];portConstraint=eastwest;top=0;left=0;right=0;bottom=0;" vertex="1" parent="OJI9j9PqVcEZtPeE3aiB-23">
          <mxGeometry y="25" width="182" height="22" as="geometry" />
        </mxCell>
        <mxCell id="OJI9j9PqVcEZtPeE3aiB-25" value="int" style="shape=partialRectangle;connectable=0;fillColor=none;top=0;left=0;bottom=0;right=0;align=left;spacingLeft=2;overflow=hidden;fontSize=11;" vertex="1" parent="OJI9j9PqVcEZtPeE3aiB-24">
          <mxGeometry width="48" height="22" as="geometry">
            <mxRectangle width="48" height="22" as="alternateBounds" />
          </mxGeometry>
        </mxCell>
        <mxCell id="OJI9j9PqVcEZtPeE3aiB-26" value="id" style="shape=partialRectangle;connectable=0;fillColor=none;top=0;left=0;bottom=0;right=0;align=left;spacingLeft=2;overflow=hidden;fontSize=11;" vertex="1" parent="OJI9j9PqVcEZtPeE3aiB-24">
          <mxGeometry x="48" width="134" height="22" as="geometry">
            <mxRectangle width="134" height="22" as="alternateBounds" />
          </mxGeometry>
        </mxCell>
        <mxCell id="OJI9j9PqVcEZtPeE3aiB-27" style="shape=tableRow;horizontal=0;startSize=0;swimlaneHead=0;swimlaneBody=0;fillColor=none;collapsible=0;dropTarget=0;points=[[0,0.5],[1,0.5]];portConstraint=eastwest;top=0;left=0;right=0;bottom=0;" vertex="1" parent="OJI9j9PqVcEZtPeE3aiB-23">
          <mxGeometry y="47" width="182" height="22" as="geometry" />
        </mxCell>
        <mxCell id="OJI9j9PqVcEZtPeE3aiB-28" value="int" style="shape=partialRectangle;connectable=0;fillColor=none;top=0;left=0;bottom=0;right=0;align=left;spacingLeft=2;overflow=hidden;fontSize=11;" vertex="1" parent="OJI9j9PqVcEZtPeE3aiB-27">
          <mxGeometry width="48" height="22" as="geometry">
            <mxRectangle width="48" height="22" as="alternateBounds" />
          </mxGeometry>
        </mxCell>
        <mxCell id="OJI9j9PqVcEZtPeE3aiB-29" value="cust_id" style="shape=partialRectangle;connectable=0;fillColor=none;top=0;left=0;bottom=0;right=0;align=left;spacingLeft=2;overflow=hidden;fontSize=11;" vertex="1" parent="OJI9j9PqVcEZtPeE3aiB-27">
          <mxGeometry x="48" width="134" height="22" as="geometry">
            <mxRectangle width="134" height="22" as="alternateBounds" />
          </mxGeometry>
        </mxCell>
        <mxCell id="OJI9j9PqVcEZtPeE3aiB-30" style="shape=tableRow;horizontal=0;startSize=0;swimlaneHead=0;swimlaneBody=0;fillColor=none;collapsible=0;dropTarget=0;points=[[0,0.5],[1,0.5]];portConstraint=eastwest;top=0;left=0;right=0;bottom=0;" vertex="1" parent="OJI9j9PqVcEZtPeE3aiB-23">
          <mxGeometry y="69" width="182" height="22" as="geometry" />
        </mxCell>
        <mxCell id="OJI9j9PqVcEZtPeE3aiB-31" value="int" style="shape=partialRectangle;connectable=0;fillColor=none;top=0;left=0;bottom=0;right=0;align=left;spacingLeft=2;overflow=hidden;fontSize=11;" vertex="1" parent="OJI9j9PqVcEZtPeE3aiB-30">
          <mxGeometry width="48" height="22" as="geometry">
            <mxRectangle width="48" height="22" as="alternateBounds" />
          </mxGeometry>
        </mxCell>
        <mxCell id="OJI9j9PqVcEZtPeE3aiB-32" value="user_id" style="shape=partialRectangle;connectable=0;fillColor=none;top=0;left=0;bottom=0;right=0;align=left;spacingLeft=2;overflow=hidden;fontSize=11;" vertex="1" parent="OJI9j9PqVcEZtPeE3aiB-30">
          <mxGeometry x="48" width="134" height="22" as="geometry">
            <mxRectangle width="134" height="22" as="alternateBounds" />
          </mxGeometry>
        </mxCell>
        <mxCell id="OJI9j9PqVcEZtPeE3aiB-33" style="shape=tableRow;horizontal=0;startSize=0;swimlaneHead=0;swimlaneBody=0;fillColor=none;collapsible=0;dropTarget=0;points=[[0,0.5],[1,0.5]];portConstraint=eastwest;top=0;left=0;right=0;bottom=0;" vertex="1" parent="OJI9j9PqVcEZtPeE3aiB-23">
          <mxGeometry y="91" width="182" height="22" as="geometry" />
        </mxCell>
        <mxCell id="OJI9j9PqVcEZtPeE3aiB-34" value="boolean" style="shape=partialRectangle;connectable=0;fillColor=none;top=0;left=0;bottom=0;right=0;align=left;spacingLeft=2;overflow=hidden;fontSize=11;" vertex="1" parent="OJI9j9PqVcEZtPeE3aiB-33">
          <mxGeometry width="48" height="22" as="geometry">
            <mxRectangle width="48" height="22" as="alternateBounds" />
          </mxGeometry>
        </mxCell>
        <mxCell id="OJI9j9PqVcEZtPeE3aiB-35" value="is_updated_password" style="shape=partialRectangle;connectable=0;fillColor=none;top=0;left=0;bottom=0;right=0;align=left;spacingLeft=2;overflow=hidden;fontSize=11;" vertex="1" parent="OJI9j9PqVcEZtPeE3aiB-33">
          <mxGeometry x="48" width="134" height="22" as="geometry">
            <mxRectangle width="134" height="22" as="alternateBounds" />
          </mxGeometry>
        </mxCell>
        <mxCell id="OJI9j9PqVcEZtPeE3aiB-36" style="shape=tableRow;horizontal=0;startSize=0;swimlaneHead=0;swimlaneBody=0;fillColor=none;collapsible=0;dropTarget=0;points=[[0,0.5],[1,0.5]];portConstraint=eastwest;top=0;left=0;right=0;bottom=0;" vertex="1" parent="OJI9j9PqVcEZtPeE3aiB-23">
          <mxGeometry y="113" width="182" height="22" as="geometry" />
        </mxCell>
        <mxCell id="OJI9j9PqVcEZtPeE3aiB-37" value="datetime" style="shape=partialRectangle;connectable=0;fillColor=none;top=0;left=0;bottom=0;right=0;align=left;spacingLeft=2;overflow=hidden;fontSize=11;" vertex="1" parent="OJI9j9PqVcEZtPeE3aiB-36">
          <mxGeometry width="48" height="22" as="geometry">
            <mxRectangle width="48" height="22" as="alternateBounds" />
          </mxGeometry>
        </mxCell>
        <mxCell id="OJI9j9PqVcEZtPeE3aiB-38" value="reset_password_time" style="shape=partialRectangle;connectable=0;fillColor=none;top=0;left=0;bottom=0;right=0;align=left;spacingLeft=2;overflow=hidden;fontSize=11;" vertex="1" parent="OJI9j9PqVcEZtPeE3aiB-36">
          <mxGeometry x="48" width="134" height="22" as="geometry">
            <mxRectangle width="134" height="22" as="alternateBounds" />
          </mxGeometry>
        </mxCell>
        <mxCell id="OJI9j9PqVcEZtPeE3aiB-39" style="shape=tableRow;horizontal=0;startSize=0;swimlaneHead=0;swimlaneBody=0;fillColor=none;collapsible=0;dropTarget=0;points=[[0,0.5],[1,0.5]];portConstraint=eastwest;top=0;left=0;right=0;bottom=0;" vertex="1" parent="OJI9j9PqVcEZtPeE3aiB-23">
          <mxGeometry y="135" width="182" height="22" as="geometry" />
        </mxCell>
        <mxCell id="OJI9j9PqVcEZtPeE3aiB-40" value="datetime" style="shape=partialRectangle;connectable=0;fillColor=none;top=0;left=0;bottom=0;right=0;align=left;spacingLeft=2;overflow=hidden;fontSize=11;" vertex="1" parent="OJI9j9PqVcEZtPeE3aiB-39">
          <mxGeometry width="48" height="22" as="geometry">
            <mxRectangle width="48" height="22" as="alternateBounds" />
          </mxGeometry>
        </mxCell>
        <mxCell id="OJI9j9PqVcEZtPeE3aiB-41" value="unregister_time" style="shape=partialRectangle;connectable=0;fillColor=none;top=0;left=0;bottom=0;right=0;align=left;spacingLeft=2;overflow=hidden;fontSize=11;" vertex="1" parent="OJI9j9PqVcEZtPeE3aiB-39">
          <mxGeometry x="48" width="134" height="22" as="geometry">
            <mxRectangle width="134" height="22" as="alternateBounds" />
          </mxGeometry>
        </mxCell>
        <mxCell id="OJI9j9PqVcEZtPeE3aiB-42" style="shape=tableRow;horizontal=0;startSize=0;swimlaneHead=0;swimlaneBody=0;fillColor=none;collapsible=0;dropTarget=0;points=[[0,0.5],[1,0.5]];portConstraint=eastwest;top=0;left=0;right=0;bottom=0;" vertex="1" parent="OJI9j9PqVcEZtPeE3aiB-23">
          <mxGeometry y="157" width="182" height="22" as="geometry" />
        </mxCell>
        <mxCell id="OJI9j9PqVcEZtPeE3aiB-43" value="int" style="shape=partialRectangle;connectable=0;fillColor=none;top=0;left=0;bottom=0;right=0;align=left;spacingLeft=2;overflow=hidden;fontSize=11;" vertex="1" parent="OJI9j9PqVcEZtPeE3aiB-42">
          <mxGeometry width="48" height="22" as="geometry">
            <mxRectangle width="48" height="22" as="alternateBounds" />
          </mxGeometry>
        </mxCell>
        <mxCell id="OJI9j9PqVcEZtPeE3aiB-44" value="status" style="shape=partialRectangle;connectable=0;fillColor=none;top=0;left=0;bottom=0;right=0;align=left;spacingLeft=2;overflow=hidden;fontSize=11;" vertex="1" parent="OJI9j9PqVcEZtPeE3aiB-42">
          <mxGeometry x="48" width="134" height="22" as="geometry">
            <mxRectangle width="134" height="22" as="alternateBounds" />
          </mxGeometry>
        </mxCell>
        <mxCell id="OJI9j9PqVcEZtPeE3aiB-45" value="CustInfo" style="shape=table;startSize=25;container=1;collapsible=0;childLayout=tableLayout;fixedRows=1;rowLines=1;fontStyle=1;align=center;resizeLast=1;" vertex="1" parent="1">
          <mxGeometry x="257" y="232" width="128" height="179" as="geometry" />
        </mxCell>
        <mxCell id="OJI9j9PqVcEZtPeE3aiB-46" style="shape=tableRow;horizontal=0;startSize=0;swimlaneHead=0;swimlaneBody=0;fillColor=none;collapsible=0;dropTarget=0;points=[[0,0.5],[1,0.5]];portConstraint=eastwest;top=0;left=0;right=0;bottom=0;" vertex="1" parent="OJI9j9PqVcEZtPeE3aiB-45">
          <mxGeometry y="25" width="128" height="22" as="geometry" />
        </mxCell>
        <mxCell id="OJI9j9PqVcEZtPeE3aiB-47" value="int" style="shape=partialRectangle;connectable=0;fillColor=none;top=0;left=0;bottom=0;right=0;align=left;spacingLeft=2;overflow=hidden;fontSize=11;" vertex="1" parent="OJI9j9PqVcEZtPeE3aiB-46">
          <mxGeometry width="36" height="22" as="geometry">
            <mxRectangle width="36" height="22" as="alternateBounds" />
          </mxGeometry>
        </mxCell>
        <mxCell id="OJI9j9PqVcEZtPeE3aiB-48" value="id" style="shape=partialRectangle;connectable=0;fillColor=none;top=0;left=0;bottom=0;right=0;align=left;spacingLeft=2;overflow=hidden;fontSize=11;" vertex="1" parent="OJI9j9PqVcEZtPeE3aiB-46">
          <mxGeometry x="36" width="92" height="22" as="geometry">
            <mxRectangle width="92" height="22" as="alternateBounds" />
          </mxGeometry>
        </mxCell>
        <mxCell id="OJI9j9PqVcEZtPeE3aiB-49" style="shape=tableRow;horizontal=0;startSize=0;swimlaneHead=0;swimlaneBody=0;fillColor=none;collapsible=0;dropTarget=0;points=[[0,0.5],[1,0.5]];portConstraint=eastwest;top=0;left=0;right=0;bottom=0;" vertex="1" parent="OJI9j9PqVcEZtPeE3aiB-45">
          <mxGeometry y="47" width="128" height="22" as="geometry" />
        </mxCell>
        <mxCell id="OJI9j9PqVcEZtPeE3aiB-50" value="string" style="shape=partialRectangle;connectable=0;fillColor=none;top=0;left=0;bottom=0;right=0;align=left;spacingLeft=2;overflow=hidden;fontSize=11;" vertex="1" parent="OJI9j9PqVcEZtPeE3aiB-49">
          <mxGeometry width="36" height="22" as="geometry">
            <mxRectangle width="36" height="22" as="alternateBounds" />
          </mxGeometry>
        </mxCell>
        <mxCell id="OJI9j9PqVcEZtPeE3aiB-51" value="cust_id" style="shape=partialRectangle;connectable=0;fillColor=none;top=0;left=0;bottom=0;right=0;align=left;spacingLeft=2;overflow=hidden;fontSize=11;" vertex="1" parent="OJI9j9PqVcEZtPeE3aiB-49">
          <mxGeometry x="36" width="92" height="22" as="geometry">
            <mxRectangle width="92" height="22" as="alternateBounds" />
          </mxGeometry>
        </mxCell>
        <mxCell id="OJI9j9PqVcEZtPeE3aiB-52" style="shape=tableRow;horizontal=0;startSize=0;swimlaneHead=0;swimlaneBody=0;fillColor=none;collapsible=0;dropTarget=0;points=[[0,0.5],[1,0.5]];portConstraint=eastwest;top=0;left=0;right=0;bottom=0;" vertex="1" parent="OJI9j9PqVcEZtPeE3aiB-45">
          <mxGeometry y="69" width="128" height="22" as="geometry" />
        </mxCell>
        <mxCell id="OJI9j9PqVcEZtPeE3aiB-53" value="int" style="shape=partialRectangle;connectable=0;fillColor=none;top=0;left=0;bottom=0;right=0;align=left;spacingLeft=2;overflow=hidden;fontSize=11;" vertex="1" parent="OJI9j9PqVcEZtPeE3aiB-52">
          <mxGeometry width="36" height="22" as="geometry">
            <mxRectangle width="36" height="22" as="alternateBounds" />
          </mxGeometry>
        </mxCell>
        <mxCell id="OJI9j9PqVcEZtPeE3aiB-54" value="status" style="shape=partialRectangle;connectable=0;fillColor=none;top=0;left=0;bottom=0;right=0;align=left;spacingLeft=2;overflow=hidden;fontSize=11;" vertex="1" parent="OJI9j9PqVcEZtPeE3aiB-52">
          <mxGeometry x="36" width="92" height="22" as="geometry">
            <mxRectangle width="92" height="22" as="alternateBounds" />
          </mxGeometry>
        </mxCell>
        <mxCell id="OJI9j9PqVcEZtPeE3aiB-55" style="shape=tableRow;horizontal=0;startSize=0;swimlaneHead=0;swimlaneBody=0;fillColor=none;collapsible=0;dropTarget=0;points=[[0,0.5],[1,0.5]];portConstraint=eastwest;top=0;left=0;right=0;bottom=0;" vertex="1" parent="OJI9j9PqVcEZtPeE3aiB-45">
          <mxGeometry y="91" width="128" height="22" as="geometry" />
        </mxCell>
        <mxCell id="OJI9j9PqVcEZtPeE3aiB-56" value="string" style="shape=partialRectangle;connectable=0;fillColor=none;top=0;left=0;bottom=0;right=0;align=left;spacingLeft=2;overflow=hidden;fontSize=11;" vertex="1" parent="OJI9j9PqVcEZtPeE3aiB-55">
          <mxGeometry width="36" height="22" as="geometry">
            <mxRectangle width="36" height="22" as="alternateBounds" />
          </mxGeometry>
        </mxCell>
        <mxCell id="OJI9j9PqVcEZtPeE3aiB-57" value="cust_type_id" style="shape=partialRectangle;connectable=0;fillColor=none;top=0;left=0;bottom=0;right=0;align=left;spacingLeft=2;overflow=hidden;fontSize=11;" vertex="1" parent="OJI9j9PqVcEZtPeE3aiB-55">
          <mxGeometry x="36" width="92" height="22" as="geometry">
            <mxRectangle width="92" height="22" as="alternateBounds" />
          </mxGeometry>
        </mxCell>
        <mxCell id="OJI9j9PqVcEZtPeE3aiB-58" style="shape=tableRow;horizontal=0;startSize=0;swimlaneHead=0;swimlaneBody=0;fillColor=none;collapsible=0;dropTarget=0;points=[[0,0.5],[1,0.5]];portConstraint=eastwest;top=0;left=0;right=0;bottom=0;" vertex="1" parent="OJI9j9PqVcEZtPeE3aiB-45">
          <mxGeometry y="113" width="128" height="22" as="geometry" />
        </mxCell>
        <mxCell id="OJI9j9PqVcEZtPeE3aiB-59" value="int" style="shape=partialRectangle;connectable=0;fillColor=none;top=0;left=0;bottom=0;right=0;align=left;spacingLeft=2;overflow=hidden;fontSize=11;" vertex="1" parent="OJI9j9PqVcEZtPeE3aiB-58">
          <mxGeometry width="36" height="22" as="geometry">
            <mxRectangle width="36" height="22" as="alternateBounds" />
          </mxGeometry>
        </mxCell>
        <mxCell id="OJI9j9PqVcEZtPeE3aiB-60" value="branch_id" style="shape=partialRectangle;connectable=0;fillColor=none;top=0;left=0;bottom=0;right=0;align=left;spacingLeft=2;overflow=hidden;fontSize=11;" vertex="1" parent="OJI9j9PqVcEZtPeE3aiB-58">
          <mxGeometry x="36" width="92" height="22" as="geometry">
            <mxRectangle width="92" height="22" as="alternateBounds" />
          </mxGeometry>
        </mxCell>
        <mxCell id="OJI9j9PqVcEZtPeE3aiB-61" style="shape=tableRow;horizontal=0;startSize=0;swimlaneHead=0;swimlaneBody=0;fillColor=none;collapsible=0;dropTarget=0;points=[[0,0.5],[1,0.5]];portConstraint=eastwest;top=0;left=0;right=0;bottom=0;" vertex="1" parent="OJI9j9PqVcEZtPeE3aiB-45">
          <mxGeometry y="135" width="128" height="22" as="geometry" />
        </mxCell>
        <mxCell id="OJI9j9PqVcEZtPeE3aiB-62" value="string" style="shape=partialRectangle;connectable=0;fillColor=none;top=0;left=0;bottom=0;right=0;align=left;spacingLeft=2;overflow=hidden;fontSize=11;" vertex="1" parent="OJI9j9PqVcEZtPeE3aiB-61">
          <mxGeometry width="36" height="22" as="geometry">
            <mxRectangle width="36" height="22" as="alternateBounds" />
          </mxGeometry>
        </mxCell>
        <mxCell id="OJI9j9PqVcEZtPeE3aiB-63" value="id_type" style="shape=partialRectangle;connectable=0;fillColor=none;top=0;left=0;bottom=0;right=0;align=left;spacingLeft=2;overflow=hidden;fontSize=11;" vertex="1" parent="OJI9j9PqVcEZtPeE3aiB-61">
          <mxGeometry x="36" width="92" height="22" as="geometry">
            <mxRectangle width="92" height="22" as="alternateBounds" />
          </mxGeometry>
        </mxCell>
        <mxCell id="OJI9j9PqVcEZtPeE3aiB-64" style="shape=tableRow;horizontal=0;startSize=0;swimlaneHead=0;swimlaneBody=0;fillColor=none;collapsible=0;dropTarget=0;points=[[0,0.5],[1,0.5]];portConstraint=eastwest;top=0;left=0;right=0;bottom=0;" vertex="1" parent="OJI9j9PqVcEZtPeE3aiB-45">
          <mxGeometry y="157" width="128" height="22" as="geometry" />
        </mxCell>
        <mxCell id="OJI9j9PqVcEZtPeE3aiB-65" value="string" style="shape=partialRectangle;connectable=0;fillColor=none;top=0;left=0;bottom=0;right=0;align=left;spacingLeft=2;overflow=hidden;fontSize=11;" vertex="1" parent="OJI9j9PqVcEZtPeE3aiB-64">
          <mxGeometry width="36" height="22" as="geometry">
            <mxRectangle width="36" height="22" as="alternateBounds" />
          </mxGeometry>
        </mxCell>
        <mxCell id="OJI9j9PqVcEZtPeE3aiB-66" value="id_number" style="shape=partialRectangle;connectable=0;fillColor=none;top=0;left=0;bottom=0;right=0;align=left;spacingLeft=2;overflow=hidden;fontSize=11;" vertex="1" parent="OJI9j9PqVcEZtPeE3aiB-64">
          <mxGeometry x="36" width="92" height="22" as="geometry">
            <mxRectangle width="92" height="22" as="alternateBounds" />
          </mxGeometry>
        </mxCell>
        <mxCell id="OJI9j9PqVcEZtPeE3aiB-67" value="FundAccount" style="shape=table;startSize=25;container=1;collapsible=0;childLayout=tableLayout;fixedRows=1;rowLines=1;fontStyle=1;align=center;resizeLast=1;" vertex="1" parent="1">
          <mxGeometry x="406" y="510" width="157" height="223" as="geometry" />
        </mxCell>
        <mxCell id="OJI9j9PqVcEZtPeE3aiB-68" style="shape=tableRow;horizontal=0;startSize=0;swimlaneHead=0;swimlaneBody=0;fillColor=none;collapsible=0;dropTarget=0;points=[[0,0.5],[1,0.5]];portConstraint=eastwest;top=0;left=0;right=0;bottom=0;" vertex="1" parent="OJI9j9PqVcEZtPeE3aiB-67">
          <mxGeometry y="25" width="157" height="22" as="geometry" />
        </mxCell>
        <mxCell id="OJI9j9PqVcEZtPeE3aiB-69" value="int" style="shape=partialRectangle;connectable=0;fillColor=none;top=0;left=0;bottom=0;right=0;align=left;spacingLeft=2;overflow=hidden;fontSize=11;" vertex="1" parent="OJI9j9PqVcEZtPeE3aiB-68">
          <mxGeometry width="36" height="22" as="geometry">
            <mxRectangle width="36" height="22" as="alternateBounds" />
          </mxGeometry>
        </mxCell>
        <mxCell id="OJI9j9PqVcEZtPeE3aiB-70" value="id" style="shape=partialRectangle;connectable=0;fillColor=none;top=0;left=0;bottom=0;right=0;align=left;spacingLeft=2;overflow=hidden;fontSize=11;" vertex="1" parent="OJI9j9PqVcEZtPeE3aiB-68">
          <mxGeometry x="36" width="121" height="22" as="geometry">
            <mxRectangle width="121" height="22" as="alternateBounds" />
          </mxGeometry>
        </mxCell>
        <mxCell id="OJI9j9PqVcEZtPeE3aiB-71" style="shape=tableRow;horizontal=0;startSize=0;swimlaneHead=0;swimlaneBody=0;fillColor=none;collapsible=0;dropTarget=0;points=[[0,0.5],[1,0.5]];portConstraint=eastwest;top=0;left=0;right=0;bottom=0;" vertex="1" parent="OJI9j9PqVcEZtPeE3aiB-67">
          <mxGeometry y="47" width="157" height="22" as="geometry" />
        </mxCell>
        <mxCell id="OJI9j9PqVcEZtPeE3aiB-72" value="int" style="shape=partialRectangle;connectable=0;fillColor=none;top=0;left=0;bottom=0;right=0;align=left;spacingLeft=2;overflow=hidden;fontSize=11;" vertex="1" parent="OJI9j9PqVcEZtPeE3aiB-71">
          <mxGeometry width="36" height="22" as="geometry">
            <mxRectangle width="36" height="22" as="alternateBounds" />
          </mxGeometry>
        </mxCell>
        <mxCell id="OJI9j9PqVcEZtPeE3aiB-73" value="user_id" style="shape=partialRectangle;connectable=0;fillColor=none;top=0;left=0;bottom=0;right=0;align=left;spacingLeft=2;overflow=hidden;fontSize=11;" vertex="1" parent="OJI9j9PqVcEZtPeE3aiB-71">
          <mxGeometry x="36" width="121" height="22" as="geometry">
            <mxRectangle width="121" height="22" as="alternateBounds" />
          </mxGeometry>
        </mxCell>
        <mxCell id="OJI9j9PqVcEZtPeE3aiB-74" style="shape=tableRow;horizontal=0;startSize=0;swimlaneHead=0;swimlaneBody=0;fillColor=none;collapsible=0;dropTarget=0;points=[[0,0.5],[1,0.5]];portConstraint=eastwest;top=0;left=0;right=0;bottom=0;" vertex="1" parent="OJI9j9PqVcEZtPeE3aiB-67">
          <mxGeometry y="69" width="157" height="22" as="geometry" />
        </mxCell>
        <mxCell id="OJI9j9PqVcEZtPeE3aiB-75" value="string" style="shape=partialRectangle;connectable=0;fillColor=none;top=0;left=0;bottom=0;right=0;align=left;spacingLeft=2;overflow=hidden;fontSize=11;" vertex="1" parent="OJI9j9PqVcEZtPeE3aiB-74">
          <mxGeometry width="36" height="22" as="geometry">
            <mxRectangle width="36" height="22" as="alternateBounds" />
          </mxGeometry>
        </mxCell>
        <mxCell id="OJI9j9PqVcEZtPeE3aiB-76" value="fund_account" style="shape=partialRectangle;connectable=0;fillColor=none;top=0;left=0;bottom=0;right=0;align=left;spacingLeft=2;overflow=hidden;fontSize=11;" vertex="1" parent="OJI9j9PqVcEZtPeE3aiB-74">
          <mxGeometry x="36" width="121" height="22" as="geometry">
            <mxRectangle width="121" height="22" as="alternateBounds" />
          </mxGeometry>
        </mxCell>
        <mxCell id="OJI9j9PqVcEZtPeE3aiB-77" style="shape=tableRow;horizontal=0;startSize=0;swimlaneHead=0;swimlaneBody=0;fillColor=none;collapsible=0;dropTarget=0;points=[[0,0.5],[1,0.5]];portConstraint=eastwest;top=0;left=0;right=0;bottom=0;" vertex="1" parent="OJI9j9PqVcEZtPeE3aiB-67">
          <mxGeometry y="91" width="157" height="22" as="geometry" />
        </mxCell>
        <mxCell id="OJI9j9PqVcEZtPeE3aiB-78" value="string" style="shape=partialRectangle;connectable=0;fillColor=none;top=0;left=0;bottom=0;right=0;align=left;spacingLeft=2;overflow=hidden;fontSize=11;" vertex="1" parent="OJI9j9PqVcEZtPeE3aiB-77">
          <mxGeometry width="36" height="22" as="geometry">
            <mxRectangle width="36" height="22" as="alternateBounds" />
          </mxGeometry>
        </mxCell>
        <mxCell id="OJI9j9PqVcEZtPeE3aiB-79" value="branch_code" style="shape=partialRectangle;connectable=0;fillColor=none;top=0;left=0;bottom=0;right=0;align=left;spacingLeft=2;overflow=hidden;fontSize=11;" vertex="1" parent="OJI9j9PqVcEZtPeE3aiB-77">
          <mxGeometry x="36" width="121" height="22" as="geometry">
            <mxRectangle width="121" height="22" as="alternateBounds" />
          </mxGeometry>
        </mxCell>
        <mxCell id="OJI9j9PqVcEZtPeE3aiB-80" style="shape=tableRow;horizontal=0;startSize=0;swimlaneHead=0;swimlaneBody=0;fillColor=none;collapsible=0;dropTarget=0;points=[[0,0.5],[1,0.5]];portConstraint=eastwest;top=0;left=0;right=0;bottom=0;" vertex="1" parent="OJI9j9PqVcEZtPeE3aiB-67">
          <mxGeometry y="113" width="157" height="22" as="geometry" />
        </mxCell>
        <mxCell id="OJI9j9PqVcEZtPeE3aiB-81" value="string" style="shape=partialRectangle;connectable=0;fillColor=none;top=0;left=0;bottom=0;right=0;align=left;spacingLeft=2;overflow=hidden;fontSize=11;" vertex="1" parent="OJI9j9PqVcEZtPeE3aiB-80">
          <mxGeometry width="36" height="22" as="geometry">
            <mxRectangle width="36" height="22" as="alternateBounds" />
          </mxGeometry>
        </mxCell>
        <mxCell id="OJI9j9PqVcEZtPeE3aiB-82" value="fund_account_type" style="shape=partialRectangle;connectable=0;fillColor=none;top=0;left=0;bottom=0;right=0;align=left;spacingLeft=2;overflow=hidden;fontSize=11;" vertex="1" parent="OJI9j9PqVcEZtPeE3aiB-80">
          <mxGeometry x="36" width="121" height="22" as="geometry">
            <mxRectangle width="121" height="22" as="alternateBounds" />
          </mxGeometry>
        </mxCell>
        <mxCell id="OJI9j9PqVcEZtPeE3aiB-83" style="shape=tableRow;horizontal=0;startSize=0;swimlaneHead=0;swimlaneBody=0;fillColor=none;collapsible=0;dropTarget=0;points=[[0,0.5],[1,0.5]];portConstraint=eastwest;top=0;left=0;right=0;bottom=0;" vertex="1" parent="OJI9j9PqVcEZtPeE3aiB-67">
          <mxGeometry y="135" width="157" height="22" as="geometry" />
        </mxCell>
        <mxCell id="OJI9j9PqVcEZtPeE3aiB-84" value="int" style="shape=partialRectangle;connectable=0;fillColor=none;top=0;left=0;bottom=0;right=0;align=left;spacingLeft=2;overflow=hidden;fontSize=11;" vertex="1" parent="OJI9j9PqVcEZtPeE3aiB-83">
          <mxGeometry width="36" height="22" as="geometry">
            <mxRectangle width="36" height="22" as="alternateBounds" />
          </mxGeometry>
        </mxCell>
        <mxCell id="OJI9j9PqVcEZtPeE3aiB-85" value="cust_info_id" style="shape=partialRectangle;connectable=0;fillColor=none;top=0;left=0;bottom=0;right=0;align=left;spacingLeft=2;overflow=hidden;fontSize=11;" vertex="1" parent="OJI9j9PqVcEZtPeE3aiB-83">
          <mxGeometry x="36" width="121" height="22" as="geometry">
            <mxRectangle width="121" height="22" as="alternateBounds" />
          </mxGeometry>
        </mxCell>
        <mxCell id="OJI9j9PqVcEZtPeE3aiB-86" style="shape=tableRow;horizontal=0;startSize=0;swimlaneHead=0;swimlaneBody=0;fillColor=none;collapsible=0;dropTarget=0;points=[[0,0.5],[1,0.5]];portConstraint=eastwest;top=0;left=0;right=0;bottom=0;" vertex="1" parent="OJI9j9PqVcEZtPeE3aiB-67">
          <mxGeometry y="157" width="157" height="22" as="geometry" />
        </mxCell>
        <mxCell id="OJI9j9PqVcEZtPeE3aiB-87" value="string" style="shape=partialRectangle;connectable=0;fillColor=none;top=0;left=0;bottom=0;right=0;align=left;spacingLeft=2;overflow=hidden;fontSize=11;" vertex="1" parent="OJI9j9PqVcEZtPeE3aiB-86">
          <mxGeometry width="36" height="22" as="geometry">
            <mxRectangle width="36" height="22" as="alternateBounds" />
          </mxGeometry>
        </mxCell>
        <mxCell id="OJI9j9PqVcEZtPeE3aiB-88" value="cust_id" style="shape=partialRectangle;connectable=0;fillColor=none;top=0;left=0;bottom=0;right=0;align=left;spacingLeft=2;overflow=hidden;fontSize=11;" vertex="1" parent="OJI9j9PqVcEZtPeE3aiB-86">
          <mxGeometry x="36" width="121" height="22" as="geometry">
            <mxRectangle width="121" height="22" as="alternateBounds" />
          </mxGeometry>
        </mxCell>
        <mxCell id="OJI9j9PqVcEZtPeE3aiB-89" style="shape=tableRow;horizontal=0;startSize=0;swimlaneHead=0;swimlaneBody=0;fillColor=none;collapsible=0;dropTarget=0;points=[[0,0.5],[1,0.5]];portConstraint=eastwest;top=0;left=0;right=0;bottom=0;" vertex="1" parent="OJI9j9PqVcEZtPeE3aiB-67">
          <mxGeometry y="179" width="157" height="22" as="geometry" />
        </mxCell>
        <mxCell id="OJI9j9PqVcEZtPeE3aiB-90" value="int" style="shape=partialRectangle;connectable=0;fillColor=none;top=0;left=0;bottom=0;right=0;align=left;spacingLeft=2;overflow=hidden;fontSize=11;" vertex="1" parent="OJI9j9PqVcEZtPeE3aiB-89">
          <mxGeometry width="36" height="22" as="geometry">
            <mxRectangle width="36" height="22" as="alternateBounds" />
          </mxGeometry>
        </mxCell>
        <mxCell id="OJI9j9PqVcEZtPeE3aiB-91" value="manager_user_id" style="shape=partialRectangle;connectable=0;fillColor=none;top=0;left=0;bottom=0;right=0;align=left;spacingLeft=2;overflow=hidden;fontSize=11;" vertex="1" parent="OJI9j9PqVcEZtPeE3aiB-89">
          <mxGeometry x="36" width="121" height="22" as="geometry">
            <mxRectangle width="121" height="22" as="alternateBounds" />
          </mxGeometry>
        </mxCell>
        <mxCell id="OJI9j9PqVcEZtPeE3aiB-92" style="shape=tableRow;horizontal=0;startSize=0;swimlaneHead=0;swimlaneBody=0;fillColor=none;collapsible=0;dropTarget=0;points=[[0,0.5],[1,0.5]];portConstraint=eastwest;top=0;left=0;right=0;bottom=0;" vertex="1" parent="OJI9j9PqVcEZtPeE3aiB-67">
          <mxGeometry y="201" width="157" height="22" as="geometry" />
        </mxCell>
        <mxCell id="OJI9j9PqVcEZtPeE3aiB-93" value="int" style="shape=partialRectangle;connectable=0;fillColor=none;top=0;left=0;bottom=0;right=0;align=left;spacingLeft=2;overflow=hidden;fontSize=11;" vertex="1" parent="OJI9j9PqVcEZtPeE3aiB-92">
          <mxGeometry width="36" height="22" as="geometry">
            <mxRectangle width="36" height="22" as="alternateBounds" />
          </mxGeometry>
        </mxCell>
        <mxCell id="OJI9j9PqVcEZtPeE3aiB-94" value="status" style="shape=partialRectangle;connectable=0;fillColor=none;top=0;left=0;bottom=0;right=0;align=left;spacingLeft=2;overflow=hidden;fontSize=11;" vertex="1" parent="OJI9j9PqVcEZtPeE3aiB-92">
          <mxGeometry x="36" width="121" height="22" as="geometry">
            <mxRectangle width="121" height="22" as="alternateBounds" />
          </mxGeometry>
        </mxCell>
        <mxCell id="OJI9j9PqVcEZtPeE3aiB-95" value="DeptType" style="shape=table;startSize=25;container=1;collapsible=0;childLayout=tableLayout;fixedRows=1;rowLines=1;fontStyle=1;align=center;resizeLast=1;" vertex="1" parent="1">
          <mxGeometry x="158" y="31" width="100" height="91" as="geometry" />
        </mxCell>
        <mxCell id="OJI9j9PqVcEZtPeE3aiB-96" style="shape=tableRow;horizontal=0;startSize=0;swimlaneHead=0;swimlaneBody=0;fillColor=none;collapsible=0;dropTarget=0;points=[[0,0.5],[1,0.5]];portConstraint=eastwest;top=0;left=0;right=0;bottom=0;" vertex="1" parent="OJI9j9PqVcEZtPeE3aiB-95">
          <mxGeometry y="25" width="100" height="22" as="geometry" />
        </mxCell>
        <mxCell id="OJI9j9PqVcEZtPeE3aiB-97" value="int" style="shape=partialRectangle;connectable=0;fillColor=none;top=0;left=0;bottom=0;right=0;align=left;spacingLeft=2;overflow=hidden;fontSize=11;" vertex="1" parent="OJI9j9PqVcEZtPeE3aiB-96">
          <mxGeometry width="36" height="22" as="geometry">
            <mxRectangle width="36" height="22" as="alternateBounds" />
          </mxGeometry>
        </mxCell>
        <mxCell id="OJI9j9PqVcEZtPeE3aiB-98" value="id" style="shape=partialRectangle;connectable=0;fillColor=none;top=0;left=0;bottom=0;right=0;align=left;spacingLeft=2;overflow=hidden;fontSize=11;" vertex="1" parent="OJI9j9PqVcEZtPeE3aiB-96">
          <mxGeometry x="36" width="64" height="22" as="geometry">
            <mxRectangle width="64" height="22" as="alternateBounds" />
          </mxGeometry>
        </mxCell>
        <mxCell id="OJI9j9PqVcEZtPeE3aiB-99" style="shape=tableRow;horizontal=0;startSize=0;swimlaneHead=0;swimlaneBody=0;fillColor=none;collapsible=0;dropTarget=0;points=[[0,0.5],[1,0.5]];portConstraint=eastwest;top=0;left=0;right=0;bottom=0;" vertex="1" parent="OJI9j9PqVcEZtPeE3aiB-95">
          <mxGeometry y="47" width="100" height="22" as="geometry" />
        </mxCell>
        <mxCell id="OJI9j9PqVcEZtPeE3aiB-100" value="string" style="shape=partialRectangle;connectable=0;fillColor=none;top=0;left=0;bottom=0;right=0;align=left;spacingLeft=2;overflow=hidden;fontSize=11;" vertex="1" parent="OJI9j9PqVcEZtPeE3aiB-99">
          <mxGeometry width="36" height="22" as="geometry">
            <mxRectangle width="36" height="22" as="alternateBounds" />
          </mxGeometry>
        </mxCell>
        <mxCell id="OJI9j9PqVcEZtPeE3aiB-101" value="name" style="shape=partialRectangle;connectable=0;fillColor=none;top=0;left=0;bottom=0;right=0;align=left;spacingLeft=2;overflow=hidden;fontSize=11;" vertex="1" parent="OJI9j9PqVcEZtPeE3aiB-99">
          <mxGeometry x="36" width="64" height="22" as="geometry">
            <mxRectangle width="64" height="22" as="alternateBounds" />
          </mxGeometry>
        </mxCell>
        <mxCell id="OJI9j9PqVcEZtPeE3aiB-102" style="shape=tableRow;horizontal=0;startSize=0;swimlaneHead=0;swimlaneBody=0;fillColor=none;collapsible=0;dropTarget=0;points=[[0,0.5],[1,0.5]];portConstraint=eastwest;top=0;left=0;right=0;bottom=0;" vertex="1" parent="OJI9j9PqVcEZtPeE3aiB-95">
          <mxGeometry y="69" width="100" height="22" as="geometry" />
        </mxCell>
        <mxCell id="OJI9j9PqVcEZtPeE3aiB-103" value="string" style="shape=partialRectangle;connectable=0;fillColor=none;top=0;left=0;bottom=0;right=0;align=left;spacingLeft=2;overflow=hidden;fontSize=11;" vertex="1" parent="OJI9j9PqVcEZtPeE3aiB-102">
          <mxGeometry width="36" height="22" as="geometry">
            <mxRectangle width="36" height="22" as="alternateBounds" />
          </mxGeometry>
        </mxCell>
        <mxCell id="OJI9j9PqVcEZtPeE3aiB-104" value="code" style="shape=partialRectangle;connectable=0;fillColor=none;top=0;left=0;bottom=0;right=0;align=left;spacingLeft=2;overflow=hidden;fontSize=11;" vertex="1" parent="OJI9j9PqVcEZtPeE3aiB-102">
          <mxGeometry x="36" width="64" height="22" as="geometry">
            <mxRectangle width="64" height="22" as="alternateBounds" />
          </mxGeometry>
        </mxCell>
        <mxCell id="OJI9j9PqVcEZtPeE3aiB-105" value="TradeAccount" style="shape=table;startSize=25;container=1;collapsible=0;childLayout=tableLayout;fixedRows=1;rowLines=1;fontStyle=1;align=center;resizeLast=1;" vertex="1" parent="1">
          <mxGeometry x="404" y="832" width="161" height="223" as="geometry" />
        </mxCell>
        <mxCell id="OJI9j9PqVcEZtPeE3aiB-106" style="shape=tableRow;horizontal=0;startSize=0;swimlaneHead=0;swimlaneBody=0;fillColor=none;collapsible=0;dropTarget=0;points=[[0,0.5],[1,0.5]];portConstraint=eastwest;top=0;left=0;right=0;bottom=0;" vertex="1" parent="OJI9j9PqVcEZtPeE3aiB-105">
          <mxGeometry y="25" width="161" height="22" as="geometry" />
        </mxCell>
        <mxCell id="OJI9j9PqVcEZtPeE3aiB-107" value="int" style="shape=partialRectangle;connectable=0;fillColor=none;top=0;left=0;bottom=0;right=0;align=left;spacingLeft=2;overflow=hidden;fontSize=11;" vertex="1" parent="OJI9j9PqVcEZtPeE3aiB-106">
          <mxGeometry width="36" height="22" as="geometry">
            <mxRectangle width="36" height="22" as="alternateBounds" />
          </mxGeometry>
        </mxCell>
        <mxCell id="OJI9j9PqVcEZtPeE3aiB-108" value="id" style="shape=partialRectangle;connectable=0;fillColor=none;top=0;left=0;bottom=0;right=0;align=left;spacingLeft=2;overflow=hidden;fontSize=11;" vertex="1" parent="OJI9j9PqVcEZtPeE3aiB-106">
          <mxGeometry x="36" width="125" height="22" as="geometry">
            <mxRectangle width="125" height="22" as="alternateBounds" />
          </mxGeometry>
        </mxCell>
        <mxCell id="OJI9j9PqVcEZtPeE3aiB-109" style="shape=tableRow;horizontal=0;startSize=0;swimlaneHead=0;swimlaneBody=0;fillColor=none;collapsible=0;dropTarget=0;points=[[0,0.5],[1,0.5]];portConstraint=eastwest;top=0;left=0;right=0;bottom=0;" vertex="1" parent="OJI9j9PqVcEZtPeE3aiB-105">
          <mxGeometry y="47" width="161" height="22" as="geometry" />
        </mxCell>
        <mxCell id="OJI9j9PqVcEZtPeE3aiB-110" value="int" style="shape=partialRectangle;connectable=0;fillColor=none;top=0;left=0;bottom=0;right=0;align=left;spacingLeft=2;overflow=hidden;fontSize=11;" vertex="1" parent="OJI9j9PqVcEZtPeE3aiB-109">
          <mxGeometry width="36" height="22" as="geometry">
            <mxRectangle width="36" height="22" as="alternateBounds" />
          </mxGeometry>
        </mxCell>
        <mxCell id="OJI9j9PqVcEZtPeE3aiB-111" value="fund_account_id" style="shape=partialRectangle;connectable=0;fillColor=none;top=0;left=0;bottom=0;right=0;align=left;spacingLeft=2;overflow=hidden;fontSize=11;" vertex="1" parent="OJI9j9PqVcEZtPeE3aiB-109">
          <mxGeometry x="36" width="125" height="22" as="geometry">
            <mxRectangle width="125" height="22" as="alternateBounds" />
          </mxGeometry>
        </mxCell>
        <mxCell id="OJI9j9PqVcEZtPeE3aiB-112" style="shape=tableRow;horizontal=0;startSize=0;swimlaneHead=0;swimlaneBody=0;fillColor=none;collapsible=0;dropTarget=0;points=[[0,0.5],[1,0.5]];portConstraint=eastwest;top=0;left=0;right=0;bottom=0;" vertex="1" parent="OJI9j9PqVcEZtPeE3aiB-105">
          <mxGeometry y="69" width="161" height="22" as="geometry" />
        </mxCell>
        <mxCell id="OJI9j9PqVcEZtPeE3aiB-113" value="string" style="shape=partialRectangle;connectable=0;fillColor=none;top=0;left=0;bottom=0;right=0;align=left;spacingLeft=2;overflow=hidden;fontSize=11;" vertex="1" parent="OJI9j9PqVcEZtPeE3aiB-112">
          <mxGeometry width="36" height="22" as="geometry">
            <mxRectangle width="36" height="22" as="alternateBounds" />
          </mxGeometry>
        </mxCell>
        <mxCell id="OJI9j9PqVcEZtPeE3aiB-114" value="fund_account" style="shape=partialRectangle;connectable=0;fillColor=none;top=0;left=0;bottom=0;right=0;align=left;spacingLeft=2;overflow=hidden;fontSize=11;" vertex="1" parent="OJI9j9PqVcEZtPeE3aiB-112">
          <mxGeometry x="36" width="125" height="22" as="geometry">
            <mxRectangle width="125" height="22" as="alternateBounds" />
          </mxGeometry>
        </mxCell>
        <mxCell id="OJI9j9PqVcEZtPeE3aiB-115" style="shape=tableRow;horizontal=0;startSize=0;swimlaneHead=0;swimlaneBody=0;fillColor=none;collapsible=0;dropTarget=0;points=[[0,0.5],[1,0.5]];portConstraint=eastwest;top=0;left=0;right=0;bottom=0;" vertex="1" parent="OJI9j9PqVcEZtPeE3aiB-105">
          <mxGeometry y="91" width="161" height="22" as="geometry" />
        </mxCell>
        <mxCell id="OJI9j9PqVcEZtPeE3aiB-116" value="int" style="shape=partialRectangle;connectable=0;fillColor=none;top=0;left=0;bottom=0;right=0;align=left;spacingLeft=2;overflow=hidden;fontSize=11;" vertex="1" parent="OJI9j9PqVcEZtPeE3aiB-115">
          <mxGeometry width="36" height="22" as="geometry">
            <mxRectangle width="36" height="22" as="alternateBounds" />
          </mxGeometry>
        </mxCell>
        <mxCell id="OJI9j9PqVcEZtPeE3aiB-117" value="level" style="shape=partialRectangle;connectable=0;fillColor=none;top=0;left=0;bottom=0;right=0;align=left;spacingLeft=2;overflow=hidden;fontSize=11;" vertex="1" parent="OJI9j9PqVcEZtPeE3aiB-115">
          <mxGeometry x="36" width="125" height="22" as="geometry">
            <mxRectangle width="125" height="22" as="alternateBounds" />
          </mxGeometry>
        </mxCell>
        <mxCell id="OJI9j9PqVcEZtPeE3aiB-118" style="shape=tableRow;horizontal=0;startSize=0;swimlaneHead=0;swimlaneBody=0;fillColor=none;collapsible=0;dropTarget=0;points=[[0,0.5],[1,0.5]];portConstraint=eastwest;top=0;left=0;right=0;bottom=0;" vertex="1" parent="OJI9j9PqVcEZtPeE3aiB-105">
          <mxGeometry y="113" width="161" height="22" as="geometry" />
        </mxCell>
        <mxCell id="OJI9j9PqVcEZtPeE3aiB-119" value="string" style="shape=partialRectangle;connectable=0;fillColor=none;top=0;left=0;bottom=0;right=0;align=left;spacingLeft=2;overflow=hidden;fontSize=11;" vertex="1" parent="OJI9j9PqVcEZtPeE3aiB-118">
          <mxGeometry width="36" height="22" as="geometry">
            <mxRectangle width="36" height="22" as="alternateBounds" />
          </mxGeometry>
        </mxCell>
        <mxCell id="OJI9j9PqVcEZtPeE3aiB-120" value="trade_account" style="shape=partialRectangle;connectable=0;fillColor=none;top=0;left=0;bottom=0;right=0;align=left;spacingLeft=2;overflow=hidden;fontSize=11;" vertex="1" parent="OJI9j9PqVcEZtPeE3aiB-118">
          <mxGeometry x="36" width="125" height="22" as="geometry">
            <mxRectangle width="125" height="22" as="alternateBounds" />
          </mxGeometry>
        </mxCell>
        <mxCell id="OJI9j9PqVcEZtPeE3aiB-121" style="shape=tableRow;horizontal=0;startSize=0;swimlaneHead=0;swimlaneBody=0;fillColor=none;collapsible=0;dropTarget=0;points=[[0,0.5],[1,0.5]];portConstraint=eastwest;top=0;left=0;right=0;bottom=0;" vertex="1" parent="OJI9j9PqVcEZtPeE3aiB-105">
          <mxGeometry y="135" width="161" height="22" as="geometry" />
        </mxCell>
        <mxCell id="OJI9j9PqVcEZtPeE3aiB-122" value="string" style="shape=partialRectangle;connectable=0;fillColor=none;top=0;left=0;bottom=0;right=0;align=left;spacingLeft=2;overflow=hidden;fontSize=11;" vertex="1" parent="OJI9j9PqVcEZtPeE3aiB-121">
          <mxGeometry width="36" height="22" as="geometry">
            <mxRectangle width="36" height="22" as="alternateBounds" />
          </mxGeometry>
        </mxCell>
        <mxCell id="OJI9j9PqVcEZtPeE3aiB-123" value="password" style="shape=partialRectangle;connectable=0;fillColor=none;top=0;left=0;bottom=0;right=0;align=left;spacingLeft=2;overflow=hidden;fontSize=11;" vertex="1" parent="OJI9j9PqVcEZtPeE3aiB-121">
          <mxGeometry x="36" width="125" height="22" as="geometry">
            <mxRectangle width="125" height="22" as="alternateBounds" />
          </mxGeometry>
        </mxCell>
        <mxCell id="OJI9j9PqVcEZtPeE3aiB-124" style="shape=tableRow;horizontal=0;startSize=0;swimlaneHead=0;swimlaneBody=0;fillColor=none;collapsible=0;dropTarget=0;points=[[0,0.5],[1,0.5]];portConstraint=eastwest;top=0;left=0;right=0;bottom=0;" vertex="1" parent="OJI9j9PqVcEZtPeE3aiB-105">
          <mxGeometry y="157" width="161" height="22" as="geometry" />
        </mxCell>
        <mxCell id="OJI9j9PqVcEZtPeE3aiB-125" value="string" style="shape=partialRectangle;connectable=0;fillColor=none;top=0;left=0;bottom=0;right=0;align=left;spacingLeft=2;overflow=hidden;fontSize=11;" vertex="1" parent="OJI9j9PqVcEZtPeE3aiB-124">
          <mxGeometry width="36" height="22" as="geometry">
            <mxRectangle width="36" height="22" as="alternateBounds" />
          </mxGeometry>
        </mxCell>
        <mxCell id="OJI9j9PqVcEZtPeE3aiB-126" value="parent_account" style="shape=partialRectangle;connectable=0;fillColor=none;top=0;left=0;bottom=0;right=0;align=left;spacingLeft=2;overflow=hidden;fontSize=11;" vertex="1" parent="OJI9j9PqVcEZtPeE3aiB-124">
          <mxGeometry x="36" width="125" height="22" as="geometry">
            <mxRectangle width="125" height="22" as="alternateBounds" />
          </mxGeometry>
        </mxCell>
        <mxCell id="OJI9j9PqVcEZtPeE3aiB-127" style="shape=tableRow;horizontal=0;startSize=0;swimlaneHead=0;swimlaneBody=0;fillColor=none;collapsible=0;dropTarget=0;points=[[0,0.5],[1,0.5]];portConstraint=eastwest;top=0;left=0;right=0;bottom=0;" vertex="1" parent="OJI9j9PqVcEZtPeE3aiB-105">
          <mxGeometry y="179" width="161" height="22" as="geometry" />
        </mxCell>
        <mxCell id="OJI9j9PqVcEZtPeE3aiB-128" value="string" style="shape=partialRectangle;connectable=0;fillColor=none;top=0;left=0;bottom=0;right=0;align=left;spacingLeft=2;overflow=hidden;fontSize=11;" vertex="1" parent="OJI9j9PqVcEZtPeE3aiB-127">
          <mxGeometry width="36" height="22" as="geometry">
            <mxRectangle width="36" height="22" as="alternateBounds" />
          </mxGeometry>
        </mxCell>
        <mxCell id="OJI9j9PqVcEZtPeE3aiB-129" value="trade_account_type" style="shape=partialRectangle;connectable=0;fillColor=none;top=0;left=0;bottom=0;right=0;align=left;spacingLeft=2;overflow=hidden;fontSize=11;" vertex="1" parent="OJI9j9PqVcEZtPeE3aiB-127">
          <mxGeometry x="36" width="125" height="22" as="geometry">
            <mxRectangle width="125" height="22" as="alternateBounds" />
          </mxGeometry>
        </mxCell>
        <mxCell id="OJI9j9PqVcEZtPeE3aiB-130" style="shape=tableRow;horizontal=0;startSize=0;swimlaneHead=0;swimlaneBody=0;fillColor=none;collapsible=0;dropTarget=0;points=[[0,0.5],[1,0.5]];portConstraint=eastwest;top=0;left=0;right=0;bottom=0;" vertex="1" parent="OJI9j9PqVcEZtPeE3aiB-105">
          <mxGeometry y="201" width="161" height="22" as="geometry" />
        </mxCell>
        <mxCell id="OJI9j9PqVcEZtPeE3aiB-131" value="int" style="shape=partialRectangle;connectable=0;fillColor=none;top=0;left=0;bottom=0;right=0;align=left;spacingLeft=2;overflow=hidden;fontSize=11;" vertex="1" parent="OJI9j9PqVcEZtPeE3aiB-130">
          <mxGeometry width="36" height="22" as="geometry">
            <mxRectangle width="36" height="22" as="alternateBounds" />
          </mxGeometry>
        </mxCell>
        <mxCell id="OJI9j9PqVcEZtPeE3aiB-132" value="status" style="shape=partialRectangle;connectable=0;fillColor=none;top=0;left=0;bottom=0;right=0;align=left;spacingLeft=2;overflow=hidden;fontSize=11;" vertex="1" parent="OJI9j9PqVcEZtPeE3aiB-130">
          <mxGeometry x="36" width="125" height="22" as="geometry">
            <mxRectangle width="125" height="22" as="alternateBounds" />
          </mxGeometry>
        </mxCell>
        <mxCell id="OJI9j9PqVcEZtPeE3aiB-133" value="FundType" style="shape=table;startSize=25;container=1;collapsible=0;childLayout=tableLayout;fixedRows=1;rowLines=1;fontStyle=1;align=center;resizeLast=1;" vertex="1" parent="1">
          <mxGeometry x="485" y="276" width="100" height="91" as="geometry" />
        </mxCell>
        <mxCell id="OJI9j9PqVcEZtPeE3aiB-134" style="shape=tableRow;horizontal=0;startSize=0;swimlaneHead=0;swimlaneBody=0;fillColor=none;collapsible=0;dropTarget=0;points=[[0,0.5],[1,0.5]];portConstraint=eastwest;top=0;left=0;right=0;bottom=0;" vertex="1" parent="OJI9j9PqVcEZtPeE3aiB-133">
          <mxGeometry y="25" width="100" height="22" as="geometry" />
        </mxCell>
        <mxCell id="OJI9j9PqVcEZtPeE3aiB-135" value="int" style="shape=partialRectangle;connectable=0;fillColor=none;top=0;left=0;bottom=0;right=0;align=left;spacingLeft=2;overflow=hidden;fontSize=11;" vertex="1" parent="OJI9j9PqVcEZtPeE3aiB-134">
          <mxGeometry width="36" height="22" as="geometry">
            <mxRectangle width="36" height="22" as="alternateBounds" />
          </mxGeometry>
        </mxCell>
        <mxCell id="OJI9j9PqVcEZtPeE3aiB-136" value="id" style="shape=partialRectangle;connectable=0;fillColor=none;top=0;left=0;bottom=0;right=0;align=left;spacingLeft=2;overflow=hidden;fontSize=11;" vertex="1" parent="OJI9j9PqVcEZtPeE3aiB-134">
          <mxGeometry x="36" width="64" height="22" as="geometry">
            <mxRectangle width="64" height="22" as="alternateBounds" />
          </mxGeometry>
        </mxCell>
        <mxCell id="OJI9j9PqVcEZtPeE3aiB-137" style="shape=tableRow;horizontal=0;startSize=0;swimlaneHead=0;swimlaneBody=0;fillColor=none;collapsible=0;dropTarget=0;points=[[0,0.5],[1,0.5]];portConstraint=eastwest;top=0;left=0;right=0;bottom=0;" vertex="1" parent="OJI9j9PqVcEZtPeE3aiB-133">
          <mxGeometry y="47" width="100" height="22" as="geometry" />
        </mxCell>
        <mxCell id="OJI9j9PqVcEZtPeE3aiB-138" value="string" style="shape=partialRectangle;connectable=0;fillColor=none;top=0;left=0;bottom=0;right=0;align=left;spacingLeft=2;overflow=hidden;fontSize=11;" vertex="1" parent="OJI9j9PqVcEZtPeE3aiB-137">
          <mxGeometry width="36" height="22" as="geometry">
            <mxRectangle width="36" height="22" as="alternateBounds" />
          </mxGeometry>
        </mxCell>
        <mxCell id="OJI9j9PqVcEZtPeE3aiB-139" value="name" style="shape=partialRectangle;connectable=0;fillColor=none;top=0;left=0;bottom=0;right=0;align=left;spacingLeft=2;overflow=hidden;fontSize=11;" vertex="1" parent="OJI9j9PqVcEZtPeE3aiB-137">
          <mxGeometry x="36" width="64" height="22" as="geometry">
            <mxRectangle width="64" height="22" as="alternateBounds" />
          </mxGeometry>
        </mxCell>
        <mxCell id="OJI9j9PqVcEZtPeE3aiB-140" style="shape=tableRow;horizontal=0;startSize=0;swimlaneHead=0;swimlaneBody=0;fillColor=none;collapsible=0;dropTarget=0;points=[[0,0.5],[1,0.5]];portConstraint=eastwest;top=0;left=0;right=0;bottom=0;" vertex="1" parent="OJI9j9PqVcEZtPeE3aiB-133">
          <mxGeometry y="69" width="100" height="22" as="geometry" />
        </mxCell>
        <mxCell id="OJI9j9PqVcEZtPeE3aiB-141" value="string" style="shape=partialRectangle;connectable=0;fillColor=none;top=0;left=0;bottom=0;right=0;align=left;spacingLeft=2;overflow=hidden;fontSize=11;" vertex="1" parent="OJI9j9PqVcEZtPeE3aiB-140">
          <mxGeometry width="36" height="22" as="geometry">
            <mxRectangle width="36" height="22" as="alternateBounds" />
          </mxGeometry>
        </mxCell>
        <mxCell id="OJI9j9PqVcEZtPeE3aiB-142" value="code" style="shape=partialRectangle;connectable=0;fillColor=none;top=0;left=0;bottom=0;right=0;align=left;spacingLeft=2;overflow=hidden;fontSize=11;" vertex="1" parent="OJI9j9PqVcEZtPeE3aiB-140">
          <mxGeometry x="36" width="64" height="22" as="geometry">
            <mxRectangle width="64" height="22" as="alternateBounds" />
          </mxGeometry>
        </mxCell>
        <mxCell id="OJI9j9PqVcEZtPeE3aiB-143" value="Branches" style="shape=table;startSize=25;container=1;collapsible=0;childLayout=tableLayout;fixedRows=1;rowLines=1;fontStyle=1;align=center;resizeLast=1;" vertex="1" parent="1">
          <mxGeometry x="358" y="20" width="152" height="113" as="geometry" />
        </mxCell>
        <mxCell id="OJI9j9PqVcEZtPeE3aiB-144" style="shape=tableRow;horizontal=0;startSize=0;swimlaneHead=0;swimlaneBody=0;fillColor=none;collapsible=0;dropTarget=0;points=[[0,0.5],[1,0.5]];portConstraint=eastwest;top=0;left=0;right=0;bottom=0;" vertex="1" parent="OJI9j9PqVcEZtPeE3aiB-143">
          <mxGeometry y="25" width="152" height="22" as="geometry" />
        </mxCell>
        <mxCell id="OJI9j9PqVcEZtPeE3aiB-145" value="int" style="shape=partialRectangle;connectable=0;fillColor=none;top=0;left=0;bottom=0;right=0;align=left;spacingLeft=2;overflow=hidden;fontSize=11;" vertex="1" parent="OJI9j9PqVcEZtPeE3aiB-144">
          <mxGeometry width="36" height="22" as="geometry">
            <mxRectangle width="36" height="22" as="alternateBounds" />
          </mxGeometry>
        </mxCell>
        <mxCell id="OJI9j9PqVcEZtPeE3aiB-146" value="id" style="shape=partialRectangle;connectable=0;fillColor=none;top=0;left=0;bottom=0;right=0;align=left;spacingLeft=2;overflow=hidden;fontSize=11;" vertex="1" parent="OJI9j9PqVcEZtPeE3aiB-144">
          <mxGeometry x="36" width="116" height="22" as="geometry">
            <mxRectangle width="116" height="22" as="alternateBounds" />
          </mxGeometry>
        </mxCell>
        <mxCell id="OJI9j9PqVcEZtPeE3aiB-147" style="shape=tableRow;horizontal=0;startSize=0;swimlaneHead=0;swimlaneBody=0;fillColor=none;collapsible=0;dropTarget=0;points=[[0,0.5],[1,0.5]];portConstraint=eastwest;top=0;left=0;right=0;bottom=0;" vertex="1" parent="OJI9j9PqVcEZtPeE3aiB-143">
          <mxGeometry y="47" width="152" height="22" as="geometry" />
        </mxCell>
        <mxCell id="OJI9j9PqVcEZtPeE3aiB-148" value="string" style="shape=partialRectangle;connectable=0;fillColor=none;top=0;left=0;bottom=0;right=0;align=left;spacingLeft=2;overflow=hidden;fontSize=11;" vertex="1" parent="OJI9j9PqVcEZtPeE3aiB-147">
          <mxGeometry width="36" height="22" as="geometry">
            <mxRectangle width="36" height="22" as="alternateBounds" />
          </mxGeometry>
        </mxCell>
        <mxCell id="OJI9j9PqVcEZtPeE3aiB-149" value="branch_id" style="shape=partialRectangle;connectable=0;fillColor=none;top=0;left=0;bottom=0;right=0;align=left;spacingLeft=2;overflow=hidden;fontSize=11;" vertex="1" parent="OJI9j9PqVcEZtPeE3aiB-147">
          <mxGeometry x="36" width="116" height="22" as="geometry">
            <mxRectangle width="116" height="22" as="alternateBounds" />
          </mxGeometry>
        </mxCell>
        <mxCell id="OJI9j9PqVcEZtPeE3aiB-150" style="shape=tableRow;horizontal=0;startSize=0;swimlaneHead=0;swimlaneBody=0;fillColor=none;collapsible=0;dropTarget=0;points=[[0,0.5],[1,0.5]];portConstraint=eastwest;top=0;left=0;right=0;bottom=0;" vertex="1" parent="OJI9j9PqVcEZtPeE3aiB-143">
          <mxGeometry y="69" width="152" height="22" as="geometry" />
        </mxCell>
        <mxCell id="OJI9j9PqVcEZtPeE3aiB-151" value="string" style="shape=partialRectangle;connectable=0;fillColor=none;top=0;left=0;bottom=0;right=0;align=left;spacingLeft=2;overflow=hidden;fontSize=11;" vertex="1" parent="OJI9j9PqVcEZtPeE3aiB-150">
          <mxGeometry width="36" height="22" as="geometry">
            <mxRectangle width="36" height="22" as="alternateBounds" />
          </mxGeometry>
        </mxCell>
        <mxCell id="OJI9j9PqVcEZtPeE3aiB-152" value="branch_name" style="shape=partialRectangle;connectable=0;fillColor=none;top=0;left=0;bottom=0;right=0;align=left;spacingLeft=2;overflow=hidden;fontSize=11;" vertex="1" parent="OJI9j9PqVcEZtPeE3aiB-150">
          <mxGeometry x="36" width="116" height="22" as="geometry">
            <mxRectangle width="116" height="22" as="alternateBounds" />
          </mxGeometry>
        </mxCell>
        <mxCell id="OJI9j9PqVcEZtPeE3aiB-153" style="shape=tableRow;horizontal=0;startSize=0;swimlaneHead=0;swimlaneBody=0;fillColor=none;collapsible=0;dropTarget=0;points=[[0,0.5],[1,0.5]];portConstraint=eastwest;top=0;left=0;right=0;bottom=0;" vertex="1" parent="OJI9j9PqVcEZtPeE3aiB-143">
          <mxGeometry y="91" width="152" height="22" as="geometry" />
        </mxCell>
        <mxCell id="OJI9j9PqVcEZtPeE3aiB-154" value="string" style="shape=partialRectangle;connectable=0;fillColor=none;top=0;left=0;bottom=0;right=0;align=left;spacingLeft=2;overflow=hidden;fontSize=11;" vertex="1" parent="OJI9j9PqVcEZtPeE3aiB-153">
          <mxGeometry width="36" height="22" as="geometry">
            <mxRectangle width="36" height="22" as="alternateBounds" />
          </mxGeometry>
        </mxCell>
        <mxCell id="OJI9j9PqVcEZtPeE3aiB-155" value="branch_full_name" style="shape=partialRectangle;connectable=0;fillColor=none;top=0;left=0;bottom=0;right=0;align=left;spacingLeft=2;overflow=hidden;fontSize=11;" vertex="1" parent="OJI9j9PqVcEZtPeE3aiB-153">
          <mxGeometry x="36" width="116" height="22" as="geometry">
            <mxRectangle width="116" height="22" as="alternateBounds" />
          </mxGeometry>
        </mxCell>
        <mxCell id="OJI9j9PqVcEZtPeE3aiB-156" value="has" style="curved=0;startArrow=ERmandOne;startSize=10;;endArrow=ERmandOne;endSize=10;;exitX=0.5;exitY=1;entryX=0.35;entryY=0;rounded=0;" edge="1" parent="1" source="OJI9j9PqVcEZtPeE3aiB-1" target="OJI9j9PqVcEZtPeE3aiB-23">
          <mxGeometry relative="1" as="geometry">
            <Array as="points">
              <mxPoint x="88" y="460" />
            </Array>
          </mxGeometry>
        </mxCell>
        <mxCell id="OJI9j9PqVcEZtPeE3aiB-157" value="has" style="curved=0;startArrow=ERmandOne;startSize=10;;endArrow=ERmany;endSize=10;;exitX=0.17;exitY=1;entryX=0.86;entryY=0;rounded=0;" edge="1" parent="1" source="OJI9j9PqVcEZtPeE3aiB-45" target="OJI9j9PqVcEZtPeE3aiB-23">
          <mxGeometry relative="1" as="geometry">
            <Array as="points">
              <mxPoint x="255" y="460" />
            </Array>
          </mxGeometry>
        </mxCell>
        <mxCell id="OJI9j9PqVcEZtPeE3aiB-158" value="has" style="curved=0;startArrow=ERmandOne;startSize=10;;endArrow=ERmany;endSize=10;;exitX=0.78;exitY=1;entryX=0.03;entryY=0;rounded=0;" edge="1" parent="1" source="OJI9j9PqVcEZtPeE3aiB-45" target="OJI9j9PqVcEZtPeE3aiB-67">
          <mxGeometry relative="1" as="geometry">
            <Array as="points">
              <mxPoint x="378" y="460" />
            </Array>
          </mxGeometry>
        </mxCell>
        <mxCell id="OJI9j9PqVcEZtPeE3aiB-159" value="categorizes" style="curved=0;startArrow=ERmandOne;startSize=10;;endArrow=ERmany;endSize=10;;exitX=0.5;exitY=1;entryX=0;entryY=0.06;rounded=0;" edge="1" parent="1" source="OJI9j9PqVcEZtPeE3aiB-95" target="OJI9j9PqVcEZtPeE3aiB-45">
          <mxGeometry relative="1" as="geometry">
            <Array as="points">
              <mxPoint x="208" y="182" />
            </Array>
          </mxGeometry>
        </mxCell>
        <mxCell id="OJI9j9PqVcEZtPeE3aiB-160" value="has" style="curved=0;startArrow=ERmandOne;startSize=10;;endArrow=ERmany;endSize=10;;exitX=0.5;exitY=1;entryX=0.5;entryY=0;rounded=0;" edge="1" parent="1" source="OJI9j9PqVcEZtPeE3aiB-67" target="OJI9j9PqVcEZtPeE3aiB-105">
          <mxGeometry relative="1" as="geometry">
            <Array as="points" />
          </mxGeometry>
        </mxCell>
        <mxCell id="OJI9j9PqVcEZtPeE3aiB-161" value="categorizes" style="curved=0;startArrow=ERmandOne;startSize=10;;endArrow=ERmany;endSize=10;;exitX=0.5;exitY=1;entryX=0.72;entryY=0;rounded=0;" edge="1" parent="1" source="OJI9j9PqVcEZtPeE3aiB-133" target="OJI9j9PqVcEZtPeE3aiB-67">
          <mxGeometry relative="1" as="geometry">
            <Array as="points">
              <mxPoint x="535" y="460" />
            </Array>
          </mxGeometry>
        </mxCell>
        <mxCell id="OJI9j9PqVcEZtPeE3aiB-162" value="has" style="curved=0;startArrow=ERmandOne;startSize=10;;endArrow=ERmany;endSize=10;;exitX=0.5;exitY=1;entryX=1;entryY=0.06;rounded=0;" edge="1" parent="1" source="OJI9j9PqVcEZtPeE3aiB-143" target="OJI9j9PqVcEZtPeE3aiB-45">
          <mxGeometry relative="1" as="geometry">
            <Array as="points">
              <mxPoint x="434" y="182" />
            </Array>
          </mxGeometry>
        </mxCell>
      </root>
    </mxGraphModel>
  </diagram>
</mxfile>
